#!OML:ASF H:\Martial Arts Walks\Project 1\Capture day 1\Session 1\male.ASF
:FULLY-SPECIFIED
:DEGREES
2578
root -3.94939 13.8436 -42.7026 12.7447 -23.523 -20.6761
lowerback 8.08213 2.77271 12.3319
upperback -2.96354 5.39285 5.15295
thorax -7.13713 2.17598 -2.11276
lowerneck -1.36595 2.05316 -1.45353
upperneck 8.0342 2.50213 4.00177
head 2.72224 1.31982 1.60875
rclavicle 1.16028e-013 9.70069e-014
rhumerus -48.9198 13.828 -79.5421
rradius 44.9472
rwrist 14.3463
rhand -2.68118 -47.125
rfingers 7.12502
rthumb 23.0199 -75.7703
lclavicle 1.16028e-013 9.70069e-014
lhumerus -25.7429 1.91962 81.1574
lradius 29.1966
lwrist -11.5955
lhand -25.2563 33.5452
lfingers 7.12502
lthumb 1.26402 63.5212
rfemur 12.438 -10.0097 21.8356
rtibia 38.1409
rfoot -32.451 -28.0526
rtoes -24.541
lfemur -71.9578 30.9452 -6.17287
ltibia 80.4533
lfoot -12.007 -0.926217
ltoes 24.807
2579
root -3.95227 13.8408 -42.6995 12.7749 -23.5326 -20.6304
lowerback 8.09028 2.75354 12.273
upperback -2.99961 5.36609 5.13644
thorax -7.1874 2.16147 -2.09691
lowerneck -1.39095 2.04476 -1.40737
upperneck 8.08333 2.48848 3.98909
head 2.74435 1.31447 1.59762
rclavicle 5.61567e-014 1.90833e-014
rhumerus -48.9121 13.8828 -79.5797
rradius 44.9038
rwrist 14.3464
rhand -2.97215 -46.7575
rfingers 7.12502
rthumb 22.7407 -75.4373
lclavicle 5.61567e-014 1.90833e-014
lhumerus -25.9923 1.96086 81.0864
lradius 29.5544
lwrist -11.6119
lhand -25.2213 33.7093
lfingers 7.12502
lthumb 1.29784 63.6851
rfemur 12.368 -10.038 21.7807
rtibia 38.2153
rfoot -32.4991 -28.0455
rtoes -24.628
lfemur -72.025 30.9495 -6.22832
ltibia 80.4995
lfoot -12.0286 -0.918126
ltoes 24.8496
2580
root -3.95441 13.8371 -42.6957 12.7892 -23.5589 -20.605
lowerback 8.13138 2.75336 12.2576
upperback -3.04061 5.37503 5.1125
thorax -7.25395 2.16094 -2.11843
lowerneck -1.36588 2.02624 -1.35568
upperneck 8.10251 2.46347 3.95163
head 2.74768 1.30226 1.57555
rclavicle -3.0265e-014 -7.67309e-014
rhumerus -48.9324 13.8577 -79.5836
rradius 44.8617
rwrist 14.3685
rhand -3.23036 -46.6
rfingers 7.12502
rthumb 22.4929 -75.31
lclavicle -3.0265e-014 -7.67309e-014
lhumerus -26.226 2.18461 80.9925
lradius 29.8357
lwrist -11.8448
lhand -25.1382 33.7228
lfingers 7.12502
lthumb 1.37808 63.6981
rfemur 12.3135 -10.0426 21.7396
rtibia 38.3022
rfoot -32.5233 -28.0875
rtoes -24.6264
lfemur -72.0491 30.9542 -6.24432
ltibia 80.548
lfoot -12.0591 -0.891183
ltoes 24.8299
2581
root -3.95678 13.833 -42.6932 12.8189 -23.5529 -20.5912
lowerback 8.11069 2.75702 12.3065
upperback -3.04299 5.37862 5.06268
thorax -7.23524 2.16021 -2.19664
lowerneck -1.40225 2.04441 -1.37882
upperneck 8.08017 2.48353 4.03577
head 2.74545 1.31438 1.60791
rclavicle -5.58833e-014 3.97569e-016
rhumerus -48.9095 13.7857 -79.5935
rradius 44.8534
rwrist 14.3465
rhand -3.3247 -46.4654
rfingers 7.12502
rthumb 22.4023 -75.1864
lclavicle -5.58833e-014 3.97569e-016
lhumerus -26.0662 1.85519 80.9876
lradius 29.6368
lwrist -11.5882
lhand -25.1593 33.7593
lfingers 7.12502
lthumb 1.35768 63.7347
rfemur 12.2459 -10.0765 21.7269
rtibia 38.3844
rfoot -32.523 -28.1341
rtoes -24.6881
lfemur -72.1069 30.934 -6.25781
ltibia 80.5898
lfoot -12.0371 -0.851241
ltoes 24.835
2582
root -3.95888 13.8292 -42.6888 12.8211 -23.5628 -20.5477
lowerback 8.08231 2.7407 12.2787
upperback -3.04423 5.34824 5.04919
thorax -7.22445 2.14711 -2.19082
lowerneck -1.40564 2.05299 -1.37355
upperneck 8.08622 2.49553 4.0233
head 2.74789 1.32016 1.60338
rclavicle 1.25359e-014 2.18663e-014
rhumerus -48.8974 13.7943 -79.5727
rradius 44.85
rwrist 14.3978
rhand -3.33324 -46.5144
rfingers 7.12502
rthumb 22.3941 -75.2363
lclavicle 1.25359e-014 2.18663e-014
lhumerus -25.8385 1.83576 80.954
lradius 29.2084
lwrist -11.5297
lhand -25.2604 33.6388
lfingers 7.12502
lthumb 1.26004 63.6148
rfemur 12.2239 -10.0843 21.6747
rtibia 38.4725
rfoot -32.7337 -27.9962
rtoes -24.4542
lfemur -72.1294 30.9149 -6.28799
ltibia 80.6421
lfoot -12.1012 -0.828886
ltoes 24.8297
2583
root -3.96115 13.8255 -42.6856 12.8584 -23.5685 -20.5067
lowerback 8.04195 2.74236 12.2586
upperback -3.05535 5.34067 5.01724
thorax -7.21226 2.14416 -2.21078
lowerneck -1.4071 2.04151 -1.34904
upperneck 8.06105 2.48009 4.02011
head 2.74041 1.31299 1.59719
rclavicle -5.23301e-014 -6.67916e-014
rhumerus -48.8938 13.757 -79.5518
rradius 44.8704
rwrist 14.4163
rhand -3.20973 -46.5337
rfingers 7.12502
rthumb 22.5127 -75.2413
lclavicle -5.23301e-014 -6.67916e-014
lhumerus -25.8983 1.75107 80.9189
lradius 29.3349
lwrist -11.4848
lhand -25.2539 33.652
lfingers 7.12502
lthumb 1.2663 63.628
rfemur 12.1397 -10.0857 21.644
rtibia 38.5458
rfoot -32.6769 -28.114
rtoes -24.5719
lfemur -72.1992 30.8948 -6.33787
ltibia 80.6901
lfoot -12.1238 -0.788178
ltoes 24.8114
2584
root -3.96271 13.8206 -42.6814 12.8962 -23.5436 -20.4962
lowerback 7.99095 2.72947 12.2923
upperback -3.05247 5.31616 4.99171
thorax -7.17735 2.13217 -2.24986
lowerneck -1.43171 2.04059 -1.35945
upperneck 8.03618 2.47708 4.06228
head 2.73629 1.31257 1.61273
rclavicle -3.05631e-015 1.11319e-014
rhumerus -48.8413 13.6959 -79.5223
rradius 44.856
rwrist 14.4857
rhand -3.38193 -46.258
rfingers 7.12502
rthumb 22.3474 -74.9855
lclavicle -3.05631e-015 1.11319e-014
lhumerus -26.0915 1.89042 80.8427
lradius 29.7111
lwrist -11.6427
lhand -25.1984 33.8213
lfingers 7.12502
lthumb 1.31993 63.797
rfemur 12.0862 -10.1069 21.6449
rtibia 38.6197
rfoot -32.748 -28.1212
rtoes -24.4983
lfemur -72.2644 30.8267 -6.33053
ltibia 80.754
lfoot -12.1604 -0.739288
ltoes 24.7003
2585
root -3.96485 13.816 -42.6779 12.9218 -23.5515 -20.4959
lowerback 8.0057 2.7262 12.2866
upperback -3.07056 5.31553 4.98386
thorax -7.2055 2.12977 -2.25632
lowerneck -1.4166 2.02757 -1.35393
upperneck 8.01738 2.45957 4.06599
head 2.72773 1.30389 1.61187
rclavicle -7.71657e-014 -5.28767e-014
rhumerus -48.7765 13.6535 -79.4883
rradius 44.7513
rwrist 14.5551
rhand -4.78003 -45.786
rfingers 7.12502
rthumb 21.0047 -74.6686
lclavicle -7.71657e-014 -5.28767e-014
lhumerus -26.0249 1.64425 80.8523
lradius 29.5713
lwrist -11.4682
lhand -25.2515 33.87
lfingers 7.12502
lthumb 1.26862 63.846
rfemur 12.0358 -10.1076 21.6428
rtibia 38.6811
rfoot -32.7195 -28.2009
rtoes -24.6166
lfemur -72.3125 30.8218 -6.32671
ltibia 80.8182
lfoot -12.1783 -0.716314
ltoes 24.662
2586
root -3.96582 13.8102 -42.674 12.9206 -23.5106 -20.4703
lowerback 8.04166 2.71457 12.2911
upperback -3.09724 5.30906 4.9657
thorax -7.25439 2.12232 -2.28
lowerneck -1.44801 2.00684 -1.33199
upperneck 8.03842 2.43025 4.06755
head 2.74173 1.29044 1.60883
rclavicle 4.44284e-014 -4.73108e-014
rhumerus -48.7528 13.5575 -79.4347
rradius 44.6972
rwrist 14.5918
rhand -4.92853 -45.8867
rfingers 7.12502
rthumb 20.8621 -74.785
lclavicle 4.44284e-014 -4.73108e-014
lhumerus -26.0615 1.67078 80.8212
lradius 29.5834
lwrist -11.6168
lhand -25.2838 33.7002
lfingers 7.12502
lthumb 1.2375 63.6763
rfemur 12.0201 -10.1281 21.6237
rtibia 38.7428
rfoot -32.7621 -28.2217
rtoes -24.6367
lfemur -72.3631 30.7493 -6.3353
ltibia 80.8945
lfoot -12.2235 -0.675804
ltoes 24.5835
2587
root -3.96721 13.8061 -42.6707 12.9163 -23.5097 -20.4506
lowerback 8.07421 2.69144 12.2573
upperback -3.10985 5.2823 4.97193
thorax -7.29363 2.10838 -2.25441
lowerneck -1.42442 2.02213 -1.33999
upperneck 8.01998 2.45091 4.07553
head 2.73038 1.30036 1.61253
rclavicle 1.67352e-014 3.18055e-015
rhumerus -48.7404 13.5878 -79.4078
rradius 44.7014
rwrist 14.562
rhand -4.82393 -46.038
rfingers 7.12502
rthumb 20.9626 -74.9252
lclavicle 1.67352e-014 3.18055e-015
lhumerus -26.1013 1.79986 80.772
lradius 29.6015
lwrist -11.7402
lhand -25.2201 33.7116
lfingers 7.12502
lthumb 1.29901 63.6874
rfemur 12.0086 -10.1298 21.5987
rtibia 38.8072
rfoot -32.8259 -28.2037
rtoes -24.5482
lfemur -72.3835 30.7131 -6.3343
ltibia 80.9588
lfoot -12.2414 -0.626439
ltoes 24.6344
2588
root -3.96784 13.8002 -42.6674 12.9274 -23.5194 -20.4858
lowerback 8.10351 2.67952 12.2758
upperback -3.10258 5.27377 4.99157
thorax -7.30444 2.10325 -2.24413
lowerneck -1.44965 2.02857 -1.34376
upperneck 8.01511 2.46044 4.06917
head 2.73314 1.30501 1.61175
rclavicle 6.21202e-017 -6.55989e-014
rhumerus -48.7756 13.592 -79.3526
rradius 44.7985
rwrist 14.6034
rhand -4.74452 -46.0171
rfingers 7.12502
rthumb 21.0389 -74.8959
lclavicle 6.21202e-017 -6.55989e-014
lhumerus -25.9893 1.74997 80.7724
lradius 29.4305
lwrist -11.7227
lhand -25.2743 33.5136
lfingers 7.12502
lthumb 1.24668 63.4898
rfemur 11.986 -10.1276 21.6033
rtibia 38.8719
rfoot -32.7721 -28.2691
rtoes -24.6726
lfemur -72.4073 30.709 -6.27927
ltibia 81.0367
lfoot -12.2575 -0.607015
ltoes 24.7116
2589
root -3.96861 13.7953 -42.6635 12.9396 -23.5413 -20.4824
lowerback 8.13836 2.67113 12.2596
upperback -3.12358 5.26983 4.99665
thorax -7.35004 2.0989 -2.2321
lowerneck -1.42301 2.04724 -1.35634
upperneck 8.00347 2.48517 4.08324
head 2.72329 1.31702 1.61842
rclavicle -3.90736e-014 -5.96354e-014
rhumerus -48.8429 13.6414 -79.3334
rradius 44.8683
rwrist 14.5376
rhand -4.7701 -46.1202
rfingers 7.12502
rthumb 21.0143 -75.0017
lclavicle -3.90736e-014 -5.96354e-014
lhumerus -25.7489 1.77415 80.747
lradius 28.9507
lwrist -11.7949
lhand -25.3425 33.4034
lfingers 7.12502
lthumb 1.1808 63.3799
rfemur 11.9651 -10.1281 21.5713
rtibia 38.9445
rfoot -32.8933 -28.1934
rtoes -24.5618
lfemur -72.4509 30.7198 -6.28537
ltibia 81.1045
lfoot -12.2854 -0.578897
ltoes 24.737
2590
root -3.96909 13.7894 -42.6617 12.9136 -23.5319 -20.4799
lowerback 8.24996 2.65147 12.2271
upperback -3.15008 5.26432 5.01785
thorax -7.44947 2.09162 -2.19879
lowerneck -1.44273 2.04336 -1.33382
upperneck 8.04868 2.48167 4.02953
head 2.74287 1.31473 1.59809
rclavicle -3.45264e-014 -1.35174e-014
rhumerus -48.8543 13.6648 -79.2823
rradius 44.8404
rwrist 14.5279
rhand -4.78157 -45.9833
rfingers 7.12502
rthumb 21.0033 -74.866
lclavicle -3.45264e-014 -1.35174e-014
lhumerus -25.7575 1.78973 80.7456
lradius 28.8852
lwrist -11.8883
lhand -25.4278 33.091
lfingers 7.12502
lthumb 1.09836 63.0679
rfemur 11.9748 -10.1435 21.5574
rtibia 39.0101
rfoot -32.9087 -28.2319
rtoes -24.6235
lfemur -72.4633 30.7026 -6.26718
ltibia 81.1715
lfoot -12.3114 -0.576199
ltoes 24.7796
